<?xml version="1.0" encoding="UTF-8" standalone="no"?>
<svg
   xmlns:dc="http://purl.org/dc/elements/1.1/"
   xmlns:cc="http://creativecommons.org/ns#"
   xmlns:rdf="http://www.w3.org/1999/02/22-rdf-syntax-ns#"
   xmlns:svg="http://www.w3.org/2000/svg"
   xmlns="http://www.w3.org/2000/svg"
   xmlns:sodipodi="http://sodipodi.sourceforge.net/DTD/sodipodi-0.dtd"
   xmlns:inkscape="http://www.inkscape.org/namespaces/inkscape"
   version="1.1"
   id="Capa_1"
   x="0px"
   y="0px"
   viewBox="0 0 390.56 390.56"
   style="enable-background:new 0 0 390.56 390.56;"
   xml:space="preserve"
   sodipodi:docname="bookmark.svg"
   inkscape:version="1.0.1 (1.0.1+r75)"><metadata
   id="metadata73"><rdf:RDF><cc:Work
       rdf:about=""><dc:format>image/svg+xml</dc:format><dc:type
         rdf:resource="http://purl.org/dc/dcmitype/StillImage" /></cc:Work></rdf:RDF></metadata><defs
   id="defs71" /><sodipodi:namedview
   pagecolor="#ffffff"
   bordercolor="#666666"
   borderopacity="1"
   objecttolerance="10"
   gridtolerance="10"
   guidetolerance="10"
   inkscape:pageopacity="0"
   inkscape:pageshadow="2"
   inkscape:window-width="1920"
   inkscape:window-height="1017"
   id="namedview69"
   showgrid="false"
   inkscape:zoom="1.574662"
   inkscape:cx="195.28"
   inkscape:cy="195.28"
   inkscape:window-x="0"
   inkscape:window-y="30"
   inkscape:window-maximized="1"
   inkscape:current-layer="Capa_1" />
<g
   id="g6"
   style="fill:#666666;fill-opacity:1">
	<g
   id="g4"
   style="fill:#666666;fill-opacity:1">
		<path
   d="M325.56,27.04h-6.4V8c0-4.418-3.582-8-8-8H195.32c-4.418,0-8,3.582-8,8v19.04H65c-24,0-48.8,12.8-48.8,48.8v265.92    c0,36,25.2,48.8,48.8,48.8h260.56c24,0,48.8-12.8,48.8-48.8V75.92C374.44,52.32,361.56,27.04,325.56,27.04z M203.32,16h99.84    v140.4l-44.8-37.6c-2.98-2.515-7.34-2.515-10.32,0l-44.8,37.6L203.32,16z M325.64,374.56H65c-12.24,0-32.8-4.24-32.8-32.8V75.92    c0-28.56,20.56-32.8,32.8-32.8h122.32v130.64c-0.007,4.418,3.569,8.006,7.987,8.013c1.875,0.003,3.692-0.653,5.133-1.853    l52.8-44.24l52.8,44.24c3.395,2.828,8.439,2.368,11.267-1.027c1.2-1.441,1.856-3.258,1.853-5.133V43.04h6.4    c28.56,0,32.8,20.56,32.8,32.8l0.08,265.92C358.44,370.32,337.88,374.56,325.64,374.56z"
   id="path2"
   style="fill:#666666;fill-opacity:1" />
	</g>
</g>
<g
   id="g12"
   style="fill:#666666;fill-opacity:1">
	<g
   id="g10"
   style="fill:#666666;fill-opacity:1">
		<path
   d="M157.24,98.16H61.72c-4.418,0-8,3.582-8,8s3.582,8,8,8h95.52c4.418,0,8-3.582,8-8S161.658,98.16,157.24,98.16z"
   id="path8"
   style="fill:#666666;fill-opacity:1" />
	</g>
</g>
<g
   id="g18"
   style="fill:#666666;fill-opacity:1">
	<g
   id="g16"
   style="fill:#666666;fill-opacity:1">
		<path
   d="M157.24,152.8H61.72c-4.418,0-8,3.582-8,8s3.582,8,8,8h95.52c4.418,0,8-3.582,8-8S161.658,152.8,157.24,152.8z"
   id="path14"
   style="fill:#666666;fill-opacity:1" />
	</g>
</g>
<g
   id="g24"
   style="fill:#666666;fill-opacity:1">
	<g
   id="g22"
   style="fill:#666666;fill-opacity:1">
		<path
   d="M314.68,207.44H61.72c-4.418,0-8,3.582-8,8s3.582,8,8,8h252.96c4.418,0,8-3.582,8-8S319.098,207.44,314.68,207.44z"
   id="path20"
   style="fill:#666666;fill-opacity:1" />
	</g>
</g>
<g
   id="g30"
   style="fill:#666666;fill-opacity:1">
	<g
   id="g28"
   style="fill:#666666;fill-opacity:1">
		<path
   d="M314.68,261.76H61.72c-4.418,0-8,3.582-8,8s3.582,8,8,8h252.96c4.418,0,8-3.582,8-8S319.098,261.76,314.68,261.76z"
   id="path26"
   style="fill:#666666;fill-opacity:1" />
	</g>
</g>
<g
   id="g36"
   style="fill:#666666;fill-opacity:1">
	<g
   id="g34"
   style="fill:#666666;fill-opacity:1">
		<path
   d="M314.68,316.8H61.72c-4.418,0-8,3.582-8,8s3.582,8,8,8h252.96c4.418,0,8-3.582,8-8S319.098,316.8,314.68,316.8z"
   id="path32"
   style="fill:#666666;fill-opacity:1" />
	</g>
</g>
<g
   id="g38"
   style="fill:#666666;fill-opacity:1">
</g>
<g
   id="g40"
   style="fill:#666666;fill-opacity:1">
</g>
<g
   id="g42"
   style="fill:#666666;fill-opacity:1">
</g>
<g
   id="g44"
   style="fill:#666666;fill-opacity:1">
</g>
<g
   id="g46"
   style="fill:#666666;fill-opacity:1">
</g>
<g
   id="g48"
   style="fill:#666666;fill-opacity:1">
</g>
<g
   id="g50"
   style="fill:#666666;fill-opacity:1">
</g>
<g
   id="g52"
   style="fill:#666666;fill-opacity:1">
</g>
<g
   id="g54"
   style="fill:#666666;fill-opacity:1">
</g>
<g
   id="g56"
   style="fill:#666666;fill-opacity:1">
</g>
<g
   id="g58"
   style="fill:#666666;fill-opacity:1">
</g>
<g
   id="g60"
   style="fill:#666666;fill-opacity:1">
</g>
<g
   id="g62"
   style="fill:#666666;fill-opacity:1">
</g>
<g
   id="g64"
   style="fill:#666666;fill-opacity:1">
</g>
<g
   id="g66"
   style="fill:#666666;fill-opacity:1">
</g>
</svg>
