<?xml version="1.0" encoding="UTF-8" standalone="no"?>
<svg
   xmlns:dc="http://purl.org/dc/elements/1.1/"
   xmlns:cc="http://creativecommons.org/ns#"
   xmlns:rdf="http://www.w3.org/1999/02/22-rdf-syntax-ns#"
   xmlns:svg="http://www.w3.org/2000/svg"
   xmlns="http://www.w3.org/2000/svg"
   xmlns:sodipodi="http://sodipodi.sourceforge.net/DTD/sodipodi-0.dtd"
   xmlns:inkscape="http://www.inkscape.org/namespaces/inkscape"
   id="Layer_1"
   enable-background="new 0 0 512 512"
   height="512"
   viewBox="0 0 512 512"
   width="512"
   version="1.1"
   sodipodi:docname="fluctuation.svg"
   inkscape:version="1.0.1 (1.0.1+r75)">
  <metadata
     id="metadata12">
    <rdf:RDF>
      <cc:Work
         rdf:about="">
        <dc:format>image/svg+xml</dc:format>
        <dc:type
           rdf:resource="http://purl.org/dc/dcmitype/StillImage" />
      </cc:Work>
    </rdf:RDF>
  </metadata>
  <defs
     id="defs10" />
  <sodipodi:namedview
     pagecolor="#ffffff"
     bordercolor="#666666"
     borderopacity="1"
     objecttolerance="10"
     gridtolerance="10"
     guidetolerance="10"
     inkscape:pageopacity="0"
     inkscape:pageshadow="2"
     inkscape:window-width="1920"
     inkscape:window-height="1017"
     id="namedview8"
     showgrid="false"
     inkscape:zoom="1.2011719"
     inkscape:cx="256"
     inkscape:cy="256"
     inkscape:window-x="0"
     inkscape:window-y="30"
     inkscape:window-maximized="1"
     inkscape:current-layer="Layer_1" />
  <g
     id="XMLID_1024_"
     style="fill:#286098;fill-opacity:1">
    <g
       id="XMLID_855_"
       style="fill:#286098;fill-opacity:1">
      <path
         id="XMLID_1274_"
         d="m502 472h-17.083v-231.063c0-5.523-4.477-10-10-10h-72c-5.523 0-10 4.477-10 10v231.063h-29.944v-140.333c0-5.523-4.477-10-10-10h-72c-5.523 0-10 4.477-10 10v140.333h-29.944v-65.532c0-5.523-4.477-10-10-10s-10 4.477-10 10v65.532h-52v-221.063h52v65.531c0 5.523 4.477 10 10 10s10-4.477 10-10v-75.531c0-5.523-4.477-10-10-10h-72c-5.523 0-10 4.477-10 10v231.063h-29.944v-140.333c0-5.523-4.477-10-10-10h-72c-5.523 0-10 4.477-10 10v140.333h-17.085c-5.523 0-10 4.477-10 10s4.477 10 10 10h492c5.523 0 10-4.477 10-10s-4.477-10-10-10zm-454.917 0v-130.333h52v130.333zm243.889 0v-130.333h52v130.333zm121.945 0v-221.063h52v221.063z"
         style="fill:#286098;fill-opacity:1" />
      <path
         id="XMLID_1363_"
         d="m73.083 233.944c25.364 0 46-20.636 46-46 0-9.062-2.645-17.513-7.188-24.643l58.49-58.489c7.129 4.543 15.581 7.188 24.643 7.188s17.513-2.645 24.642-7.187l58.5 58.5c-4.549 7.133-7.198 15.59-7.198 24.659 0 25.364 20.636 46 46 46s46-20.636 46-46c0-9.069-2.649-17.526-7.198-24.659l58.5-58.5c7.129 4.543 15.58 7.187 24.642 7.187 25.364 0 46-20.636 46-46s-20.636-46-46-46-46 20.636-46 46c0 9.077 2.653 17.54 7.209 24.677l-58.494 58.494c-7.133-4.549-15.59-7.198-24.659-7.198s-17.526 2.649-24.659 7.198l-58.494-58.494c4.556-7.136 7.209-15.6 7.209-24.676 0-25.364-20.636-46-46-46s-46 20.636-46 46c0 9.076 2.653 17.54 7.209 24.676l-58.477 58.476c-7.137-4.556-15.6-7.209-24.676-7.209-25.364 0-46 20.636-46 46s20.635 46 45.999 46zm365.834-193.944c14.336 0 26 11.664 26 26s-11.664 26-26 26-26-11.664-26-26 11.663-26 26-26zm-95.945 147.972c0 14.336-11.664 26-26 26s-26-11.664-26-26 11.664-26 26-26 26 11.664 26 26zm-147.944-147.972c14.336 0 26 11.664 26 26s-11.664 26-26 26-26-11.664-26-26 11.663-26 26-26zm-121.945 121.944c14.336 0 26 11.664 26 26s-11.664 26-26 26-26-11.664-26-26 11.664-26 26-26z"
         style="fill:#286098;fill-opacity:1" />
      <path
         id="XMLID_1403_"
         d="m231.03 351.47c-2.63 0-5.21 1.07-7.07 2.93s-2.93 4.43-2.93 7.07c0 2.63 1.07 5.21 2.93 7.07s4.44 2.93 7.07 2.93 5.21-1.07 7.07-2.93 2.93-4.44 2.93-7.07-1.07-5.21-2.93-7.07-4.44-2.93-7.07-2.93z"
         style="fill:#286098;fill-opacity:1" />
    </g>
  </g>
</svg>
