<?xml version="1.0" encoding="UTF-8" standalone="no"?>
<svg
   xmlns:dc="http://purl.org/dc/elements/1.1/"
   xmlns:cc="http://creativecommons.org/ns#"
   xmlns:rdf="http://www.w3.org/1999/02/22-rdf-syntax-ns#"
   xmlns:svg="http://www.w3.org/2000/svg"
   xmlns="http://www.w3.org/2000/svg"
   xmlns:sodipodi="http://sodipodi.sourceforge.net/DTD/sodipodi-0.dtd"
   xmlns:inkscape="http://www.inkscape.org/namespaces/inkscape"
   id="Capa_1"
   enable-background="new 0 0 513.068 513.068"
   height="512"
   viewBox="0 0 513.068 513.068"
   width="512"
   version="1.1"
   sodipodi:docname="willpower.svg"
   inkscape:version="1.0.1 (1.0.1+r75)">
  <metadata
     id="metadata23">
    <rdf:RDF>
      <cc:Work
         rdf:about="">
        <dc:format>image/svg+xml</dc:format>
        <dc:type
           rdf:resource="http://purl.org/dc/dcmitype/StillImage" />
      </cc:Work>
    </rdf:RDF>
  </metadata>
  <defs
     id="defs21" />
  <sodipodi:namedview
     pagecolor="#ffffff"
     bordercolor="#666666"
     borderopacity="1"
     objecttolerance="10"
     gridtolerance="10"
     guidetolerance="10"
     inkscape:pageopacity="0"
     inkscape:pageshadow="2"
     inkscape:window-width="1920"
     inkscape:window-height="1017"
     id="namedview19"
     showgrid="false"
     inkscape:zoom="1.2011719"
     inkscape:cx="256"
     inkscape:cy="256"
     inkscape:window-x="0"
     inkscape:window-y="30"
     inkscape:window-maximized="1"
     inkscape:current-layer="Capa_1" />
  <g
     id="g16"
     style="fill:#286098;fill-opacity:1">
    <path
       d="m398.611 292.715 19.074-23.31c5.786-7.07 8.972-15.995 8.972-25.131v-70.524c0-7.66-1.774-15.35-5.131-22.236-5.093-10.446-13.631-18.657-23.831-23.533v-28.326c0-19.199-15.619-34.818-34.818-34.818-11.066 0-20.935 5.196-27.317 13.269-6.382-8.073-16.251-13.269-27.318-13.269s-20.936 5.196-27.318 13.269c-6.382-8.073-16.251-13.269-27.318-13.269-11.066 0-20.935 5.196-27.317 13.269-6.382-8.073-16.251-13.269-27.318-13.269-19.199 0-34.818 15.619-34.818 34.818v54.688c0 6.195 1.634 12.012 4.481 17.056v68.084c0 4.143 3.358 7.5 7.5 7.5s7.5-3.357 7.5-7.5v-53.893c4.63 2.282 9.835 3.569 15.336 3.569 11.066 0 20.936-5.196 27.318-13.269 6.382 8.073 16.251 13.269 27.318 13.269 11.066 0 20.935-5.196 27.317-13.269 6.382 8.073 16.251 13.269 27.318 13.269 5.352 0 10.555-1.219 15.292-3.541 4.472 2.26 9.519 3.541 14.863 3.541h8.063l-1.566 19.774h-10.186c-31.813 0-58.257 24.873-60.204 56.626l-1.065 17.37c-.254 4.134 2.892 7.691 7.027 7.945.156.009.312.014.466.014 3.932 0 7.235-3.063 7.479-7.041l1.065-17.37c1.462-23.856 21.331-42.544 45.232-42.544h17.115c3.913 0 7.167-3.008 7.477-6.908l2.207-27.866h1.371c4.142 0 7.5-3.357 7.5-7.5s-3.358-7.5-7.5-7.5h-24.48c-9.968 0-18.077-8.109-18.077-18.077s8.109-18.077 18.077-18.077h37.516c13.571 0 26.183 7.883 32.13 20.081 2.365 4.851 3.615 10.267 3.615 15.663v70.524c0 5.683-1.982 11.233-5.58 15.631l-19.074 23.31c-2.624 3.206-2.151 7.932 1.055 10.555 1.394 1.141 3.074 1.695 4.745 1.695 2.171.001 4.325-.938 5.807-2.749zm-199.641-118.555c-10.928 0-19.818-8.89-19.818-19.817v-54.688c0-10.928 8.89-19.818 19.818-19.818s19.818 8.891 19.818 19.818v54.688c0 10.928-8.89 19.817-19.818 19.817zm54.636 0c-10.928 0-19.818-8.89-19.818-19.817v-54.688c0-10.928 8.89-19.818 19.818-19.818 10.927 0 19.817 8.891 19.817 19.818v54.688c0 10.928-8.89 19.817-19.817 19.817zm51.713-18.076c0 6.602 1.952 12.753 5.298 17.922-.785.094-1.576.154-2.376.154-10.928 0-19.818-8.89-19.818-19.817v-54.688c0-10.928 8.89-19.818 19.818-19.818s19.818 8.891 19.818 19.818v25.014c-13.19 4.352-22.74 16.786-22.74 31.415zm37.74-33.078v-23.351c0-10.928 8.89-19.818 19.818-19.818 10.927 0 19.817 8.891 19.817 19.818v23.819c-2.233-.306-4.497-.469-6.782-.469h-32.853z"
       id="path2"
       style="fill:#286098;fill-opacity:1" />
    <path
       d="m377.282 306.937c-3.205-2.622-7.93-2.15-10.554 1.056l-12.752 15.585c-2.686 3.28-4.165 7.422-4.165 11.662v170.329c0 4.143 3.358 7.5 7.5 7.5s7.5-3.357 7.5-7.5v-170.33c0-.785.274-1.553.772-2.162l12.754-15.587c2.623-3.205 2.15-7.93-1.055-10.553z"
       id="path4"
       style="fill:#286098;fill-opacity:1" />
    <path
       d="m199.337 324.398c-9.98-9.58-15.704-23.01-15.704-36.844v-16.084c0-4.143-3.358-7.5-7.5-7.5s-7.5 3.357-7.5 7.5v16.084c0 17.897 7.405 35.271 20.316 47.665l5.314 5.101c1.364 1.31 2.146 3.146 2.146 5.036v159.384c0 4.143 3.358 7.5 7.5 7.5s7.5-3.357 7.5-7.5v-159.384c0-5.954-2.463-11.733-6.759-15.857z"
       id="path6"
       style="fill:#286098;fill-opacity:1" />
    <path
       d="m503.8 356.221-47.623-62.053c-1.838-2.396-4.625-3.771-7.645-3.771s-5.807 1.374-7.645 3.77l-47.624 62.055c-2.25 2.933-2.631 6.813-.997 10.128s4.946 5.374 8.642 5.374h14.146v133.171c0 4.143 3.358 7.5 7.5 7.5s7.5-3.357 7.5-7.5v-140.671c0-4.143-3.358-7.5-7.5-7.5h-10.768l36.745-47.88 36.745 47.88h-10.766c-4.142 0-7.5 3.357-7.5 7.5v140.578c0 4.143 3.358 7.5 7.5 7.5s7.5-3.357 7.5-7.5v-133.078h14.146c3.696 0 7.008-2.06 8.643-5.374s1.252-7.196-.999-10.129z"
       id="path8"
       style="fill:#286098;fill-opacity:1" />
    <path
       d="m72.18 294.168c-1.838-2.396-4.625-3.771-7.645-3.771s-5.806 1.374-7.644 3.77l-47.624 62.055c-2.25 2.933-2.632 6.813-.997 10.128s4.947 5.374 8.643 5.374h14.146v61.244c0 4.143 3.358 7.5 7.5 7.5s7.5-3.357 7.5-7.5v-68.744c0-4.143-3.358-7.5-7.5-7.5h-10.768l36.745-47.88 36.745 47.88h-10.768c-4.142 0-7.5 3.357-7.5 7.5v140.578c0 4.143 3.358 7.5 7.5 7.5s7.5-3.357 7.5-7.5v-133.078h14.145c3.696 0 7.008-2.06 8.643-5.375 1.635-3.314 1.252-7.196-.999-10.128z"
       id="path10"
       style="fill:#286098;fill-opacity:1" />
    <path
       d="m38.558 457.455c-4.142 0-7.5 3.357-7.5 7.5v39.939c0 4.143 3.358 7.5 7.5 7.5s7.5-3.357 7.5-7.5v-39.939c0-4.142-3.358-7.5-7.5-7.5z"
       id="path12"
       style="fill:#286098;fill-opacity:1" />
    <path
       d="m101.422 3.771c-1.838-2.397-4.625-3.771-7.645-3.771s-5.806 1.374-7.644 3.77l-47.624 62.054c-2.25 2.933-2.632 6.813-.997 10.128s4.947 5.374 8.643 5.374h14.145v133.171c0 4.143 3.358 7.5 7.5 7.5s7.5-3.357 7.5-7.5v-140.671c0-4.143-3.358-7.5-7.5-7.5h-10.767l36.745-47.88 36.745 47.88h-10.767c-4.142 0-7.5 3.357-7.5 7.5v140.578c0 4.143 3.358 7.5 7.5 7.5s7.5-3.357 7.5-7.5v-133.078h14.144c3.696 0 7.008-2.06 8.643-5.375 1.635-3.314 1.252-7.196-.999-10.128z"
       id="path14"
       style="fill:#286098;fill-opacity:1" />
  </g>
</svg>
