<?xml version="1.0" encoding="iso-8859-1"?>
<!-- Generator: Adobe Illustrator 19.0.0, SVG Export Plug-In . SVG Version: 6.00 Build 0)  -->
<svg version="1.1" id="Capa_1" xmlns="http://www.w3.org/2000/svg" xmlns:xlink="http://www.w3.org/1999/xlink" x="0px" y="0px"
	 viewBox="0 0 512.004 512.004" style="enable-background:new 0 0 512.004 512.004;" xml:space="preserve">
<g>
	<g>
		<g>
			<path d="M324.02,245.239c-0.786-2.958-3.097-5.269-6.055-6.055s-6.111,0.073-8.262,2.251l-11.034,11.033l-11.034-11.033
				c-3.341-3.281-8.701-3.256-12.012,0.054c-3.311,3.311-3.335,8.671-0.054,12.012l11.033,11.034l-11.034,11.034
				c-2.178,2.151-3.037,5.304-2.251,8.262c0.786,2.958,3.097,5.269,6.055,6.055c2.958,0.786,6.111-0.073,8.262-2.251l11.034-11.033
				l11.034,11.034c3.338,3.296,8.711,3.279,12.029-0.038c3.317-3.317,3.334-8.691,0.038-12.029l-11.033-11.034l11.034-11.034
				C323.947,251.351,324.806,248.198,324.02,245.239z"/>
			<path d="M145.069,187.735c0,2.263,0.899,4.433,2.5,6.033c1.6,1.601,3.77,2.5,6.033,2.5s4.433-0.899,6.033-2.5l11.033-11.033
				l11.034,11.034c3.338,3.296,8.711,3.279,12.029-0.038s3.334-8.69,0.038-12.029l-11.033-11.034l11.034-11.034
				c3.296-3.338,3.279-8.711-0.038-12.029c-3.317-3.317-8.69-3.334-12.029-0.038l-11.034,11.033l-11.034-11.034
				c-3.338-3.296-8.711-3.279-12.029,0.038c-3.317,3.317-3.334,8.69-0.038,12.029l11.033,11.034l-11.034,11.034
				C145.968,183.302,145.069,185.472,145.069,187.735z"/>
			<path d="M290.344,180.586c1.179,3.454,4.425,5.776,8.075,5.775c0.94-0.002,1.873-0.157,2.763-0.458
				c4.459-1.525,6.837-6.375,5.313-10.833l-8.283-24.225c-0.061-0.18-0.208-0.31-0.282-0.484c-0.236-0.526-0.527-1.026-0.866-1.493
				c-0.929-1.104-1.994-2.086-3.169-2.923c-0.179-0.087-0.383-0.076-0.566-0.151c-0.18-0.074-0.305-0.22-0.493-0.282
				c-0.349-0.068-0.703-0.112-1.058-0.132c-0.557-0.129-1.126-0.201-1.698-0.213c-0.581,0.015-1.158,0.092-1.722,0.23
				c-0.33,0.025-0.659,0.069-0.984,0.131l-24.221,8.283c-4.46,1.526-6.838,6.378-5.313,10.838s6.378,6.838,10.838,5.313l4.113-1.407
				c-14.444,22.037-36.409,38.069-61.801,45.107c-65.166,18.625-65.921,92.791-65.921,93.541c-0.001,2.263,0.898,4.434,2.499,6.035
				c1.6,1.6,3.771,2.499,6.035,2.499c2.263,0.001,4.434-0.898,6.035-2.499c1.6-1.6,2.499-3.771,2.499-6.035
				c0-0.617,0.612-62.008,53.546-77.125c30.298-8.352,56.343-27.8,72.958-54.477L290.344,180.586z"/>
			<path d="M388.696,78.295c-3.898-2.599-9.162-1.569-11.794,2.307l-28.358,42.542l-9.709-9.708
				c-3.341-3.281-8.701-3.256-12.012,0.054s-3.335,8.671-0.054,12.012l17.067,17.067c1.6,1.601,3.77,2.5,6.033,2.5
				c0.279,0,0.558-0.017,0.842-0.042c2.544-0.252,4.84-1.632,6.258-3.758l34.133-51.2C393.668,86.149,392.594,80.893,388.696,78.295
				z"/>
			<path d="M452.269,91.753V51.202h8.533c14.138,0,25.6-11.462,25.6-25.6s-11.462-25.6-25.6-25.6h-409.6
				c-14.138,0-25.6,11.461-25.6,25.6s11.462,25.6,25.6,25.6h8.533v40.551C11.557,149.242-8.956,224.982,3.625,298.926
				c12.581,73.945,56.988,138.639,121.467,176.96c0.133,0.102,0.202,0.253,0.343,0.349c0.483,0.294,0.994,0.537,1.526,0.727
				c9.93,5.835,20.242,10.992,30.868,15.435c0.42,0.208,0.857,0.38,1.306,0.515c62.07,25.453,131.664,25.453,193.733,0
				c0.449-0.135,0.886-0.307,1.306-0.515c10.626-4.443,20.939-9.6,30.869-15.435c0.532-0.19,1.043-0.434,1.526-0.727
				c0.141-0.096,0.209-0.247,0.343-0.349c64.479-38.321,108.886-103.016,121.467-176.96
				C520.96,224.982,500.447,149.242,452.269,91.753z M51.202,34.135c-4.711-0.005-8.529-3.823-8.533-8.533
				c0.005-4.711,3.822-8.529,8.533-8.533h409.6c4.713,0,8.533,3.82,8.533,8.533s-3.82,8.533-8.533,8.533H51.202z M85.335,341.335
				c-4.711-0.005-8.529-3.823-8.533-8.533v-281.6h358.4v281.6c-0.005,4.711-3.822,8.529-8.533,8.533H85.335z M315.735,358.402
				v17.067c-0.005,4.711-3.822,8.529-8.533,8.533h-102.4c-4.711-0.005-8.529-3.822-8.533-8.533v-17.067H315.735z M17.069,256.002
				c0.036-48.63,14.922-96.089,42.667-136.027v212.827c0.015,14.132,11.468,25.585,25.6,25.6h93.867v17.067
				c0.002,1.764,0.186,3.523,0.55,5.249l-51.932,76.768C58.888,413.672,17.116,337.68,17.069,256.002z M158.272,473.95
				c-5.348-2.408-10.622-4.952-15.754-7.733l47.372-70.027c4.33,3.16,9.55,4.869,14.911,4.879h3.071L158.272,473.95z
				 M230.402,493.546c-19.122-2.037-37.926-6.393-55.996-12.972l54.109-79.505h1.886V493.546z M264.535,494.719
				c-2.837,0.1-5.672,0.217-8.533,0.217c-2.861,0-5.696-0.117-8.533-0.217v-93.65h17.067V494.719z M281.602,493.546v-92.477h1.886
				l54.109,79.505C319.528,487.153,300.724,491.509,281.602,493.546z M353.732,473.95l-49.601-72.881h3.071
				c5.361-0.011,10.581-1.719,14.911-4.879l47.372,70.027C364.353,468.998,359.08,471.542,353.732,473.95z M384.184,457.485
				l-51.932-76.768c0.364-1.726,0.549-3.485,0.55-5.249v-17.067h93.867c14.132-0.015,25.585-11.468,25.6-25.6V119.975
				c27.745,39.938,42.631,87.397,42.667,136.027C494.888,337.68,453.116,413.672,384.184,457.485z"/>
		</g>
	</g>
</g>
<g>
</g>
<g>
</g>
<g>
</g>
<g>
</g>
<g>
</g>
<g>
</g>
<g>
</g>
<g>
</g>
<g>
</g>
<g>
</g>
<g>
</g>
<g>
</g>
<g>
</g>
<g>
</g>
<g>
</g>
</svg>
